<svg width="48" height="48" viewBox="0 0 48 48" fill="none" xmlns="http://www.w3.org/2000/svg">
<g filter="url(#filter0_iin_876_876)">
<rect width="48" height="48" rx="8" fill="url(#paint0_linear_876_876)"/>
<path d="M11.5556 17.3618C10.6271 16.8271 10 15.8208 10 14.6687C10 12.9528 11.3951 11.5576 13.1111 11.5576C14.2632 11.5576 15.2694 12.1847 15.8042 13.1132H32.191C32.7306 12.1847 33.7368 11.5576 34.8889 11.5576C36.6049 11.5576 38 12.9528 38 14.6687C38 15.8208 37.3729 16.8271 36.4444 17.3618V30.6375C37.3729 31.1771 38 32.1784 38 33.3305C38 35.0465 36.6049 36.4416 34.8889 36.4416C33.7368 36.4416 32.7306 35.8146 32.1958 34.8861H15.809C15.2694 35.8146 14.2681 36.4416 13.116 36.4416C11.4 36.4416 10.0049 35.0465 10.0049 33.3305C10.0049 32.1784 10.6319 31.1722 11.5604 30.6375V17.3618H11.5556ZM32.1958 16.2243H15.8042C15.5319 16.6958 15.1382 17.0896 14.6667 17.3618V30.6375C15.1382 30.9097 15.5319 31.3034 15.8042 31.775H32.191C32.4632 31.3034 32.8569 30.9097 33.3285 30.6375V17.3618C32.8569 17.0896 32.4632 16.6958 32.191 16.2243H32.1958ZM16.2222 19.3354C16.2222 18.475 16.9174 17.7798 17.7778 17.7798H24C24.8604 17.7798 25.5556 18.475 25.5556 19.3354V24.0021C25.5556 24.8625 24.8604 25.5576 24 25.5576H17.7778C16.9174 25.5576 16.2222 24.8625 16.2222 24.0021V19.3354ZM22.4444 27.1132H24C25.716 27.1132 27.1111 25.718 27.1111 24.0021V22.4465H30.2222C31.0826 22.4465 31.7778 23.1416 31.7778 24.0021V28.6687C31.7778 29.5291 31.0826 30.2243 30.2222 30.2243H24C23.1396 30.2243 22.4444 29.5291 22.4444 28.6687V27.1132Z" fill="url(#paint1_linear_876_876)"/>
</g>
<defs>
<filter id="filter0_iin_876_876" x="0" y="-2" width="48" height="51" filterUnits="userSpaceOnUse" color-interpolation-filters="sRGB">
<feFlood flood-opacity="0" result="BackgroundImageFix"/>
<feBlend mode="normal" in="SourceGraphic" in2="BackgroundImageFix" result="shape"/>
<feColorMatrix in="SourceAlpha" type="matrix" values="0 0 0 0 0 0 0 0 0 0 0 0 0 0 0 0 0 0 127 0" result="hardAlpha"/>
<feOffset dy="2"/>
<feGaussianBlur stdDeviation="0.5"/>
<feComposite in2="hardAlpha" operator="arithmetic" k2="-1" k3="1"/>
<feColorMatrix type="matrix" values="0 0 0 0 0.392157 0 0 0 0 0.392157 0 0 0 0 0.392157 0 0 0 0.6 0"/>
<feBlend mode="normal" in2="shape" result="effect1_innerShadow_876_876"/>
<feColorMatrix in="SourceAlpha" type="matrix" values="0 0 0 0 0 0 0 0 0 0 0 0 0 0 0 0 0 0 127 0" result="hardAlpha"/>
<feOffset dy="-2"/>
<feGaussianBlur stdDeviation="2"/>
<feComposite in2="hardAlpha" operator="arithmetic" k2="-1" k3="1"/>
<feColorMatrix type="matrix" values="0 0 0 0 0.392157 0 0 0 0 0.392157 0 0 0 0 0.392157 0 0 0 0.4 0"/>
<feBlend mode="normal" in2="effect1_innerShadow_876_876" result="effect2_innerShadow_876_876"/>
<feTurbulence type="fractalNoise" baseFrequency="2 2" stitchTiles="stitch" numOctaves="3" result="noise" seed="5259" />
<feColorMatrix in="noise" type="luminanceToAlpha" result="alphaNoise" />
<feComponentTransfer in="alphaNoise" result="coloredNoise1">
<feFuncA type="discrete" tableValues="0 0 0 0 0 0 0 0 0 0 0 0 0 0 1 1 1 1 1 1 1 1 1 1 1 1 1 1 1 1 1 1 1 1 1 0 0 0 0 0 0 0 0 0 0 0 0 0 0 0 0 0 0 0 0 0 0 0 0 0 0 0 0 0 0 0 0 0 0 0 0 0 0 0 0 0 0 0 0 0 0 0 0 0 0 0 0 0 0 0 0 0 0 0 0 0 0 0 0 0 "/>
</feComponentTransfer>
<feComposite operator="in" in2="effect2_innerShadow_876_876" in="coloredNoise1" result="noise1Clipped" />
<feFlood flood-color="rgba(100, 100, 100, 0.5)" result="color1Flood" />
<feComposite operator="in" in2="noise1Clipped" in="color1Flood" result="color1" />
<feMerge result="effect3_noise_876_876">
<feMergeNode in="effect2_innerShadow_876_876" />
<feMergeNode in="color1" />
</feMerge>
</filter>
<linearGradient id="paint0_linear_876_876" x1="24" y1="0" x2="24" y2="59.4" gradientUnits="userSpaceOnUse">
<stop stop-color="#202020"/>
<stop offset="1" stop-color="#646464"/>
</linearGradient>
<linearGradient id="paint1_linear_876_876" x1="24" y1="1.94333" x2="24" y2="36.4416" gradientUnits="userSpaceOnUse">
<stop stop-color="white"/>
<stop offset="0.845561" stop-color="#828282"/>
</linearGradient>
</defs>
</svg>
