<svg width="48" height="48" viewBox="0 0 48 48" fill="none" xmlns="http://www.w3.org/2000/svg">
<g filter="url(#filter0_iin_876_779)">
<rect width="48" height="48" rx="8" fill="url(#paint0_linear_876_779)"/>
<g clip-path="url(#clip0_876_779)">
<path d="M23.2158 29.2753C22.6698 29.6227 22.2677 30.1985 22.1535 30.8538H15.7652C15.2887 29.2703 14.3009 27.9202 13.323 26.575C13.0649 26.2226 12.8068 25.8702 12.5586 25.5128C11.5758 24.0981 11 22.3806 11 20.5292C11 15.7044 14.9114 11.793 19.7362 11.793C24.551 11.793 28.4525 15.6845 28.4724 20.4944C27.5888 20.8766 27.0825 21.7651 27.0825 22.6437V22.6884C26.2089 22.2069 25.0226 22.2814 24.2433 23.1202C23.7866 23.6116 23.3796 24.1577 23.0321 24.7583C22.6847 25.3589 22.4166 25.9843 22.2181 26.6246C21.8855 27.6968 22.3868 28.7442 23.2108 29.2703L23.2158 29.2753ZM15.7652 32.4422H22.3968C22.5705 32.8988 22.779 33.3505 23.0321 33.7824C23.1761 34.0305 23.3299 34.2738 23.4987 34.5071C22.9676 36.0756 21.4834 37.2073 19.7362 37.2073C17.5422 37.2073 15.7652 35.4303 15.7652 33.2363V32.4422ZM15.7652 20.5292C15.7652 18.3352 17.5422 16.5582 19.7362 16.5582C20.173 16.5582 20.5304 16.2008 20.5304 15.764C20.5304 15.3272 20.173 14.9698 19.7362 14.9698C16.6636 14.9698 14.1768 17.4566 14.1768 20.5292C14.1768 20.966 14.5342 21.3234 14.971 21.3234C15.4078 21.3234 15.7652 20.966 15.7652 20.5292ZM28.6709 22.6239C28.6709 22.2764 28.8943 21.9637 29.2318 21.8892C29.753 21.7701 30.299 21.7056 30.855 21.7056C31.4109 21.7056 31.9569 21.7701 32.4781 21.8892C32.8157 21.9637 33.039 22.2764 33.039 22.6239V23.5024C33.039 23.8896 33.2773 24.2371 33.6148 24.4307C33.9524 24.6243 34.3644 24.654 34.6969 24.4604L35.3819 24.0683C35.6847 23.8946 36.062 23.9343 36.3002 24.1874C36.6775 24.5895 37.01 25.0412 37.2979 25.5376C37.5858 26.034 37.8092 26.5502 37.968 27.0763C38.0723 27.4089 37.9134 27.7564 37.6106 27.9301L36.8959 28.3421C36.5732 28.5258 36.3995 28.8831 36.3995 29.2554C36.3995 29.6277 36.5732 29.9851 36.8959 30.1688L37.6106 30.5807C37.9134 30.7545 38.0673 31.1019 37.968 31.4345C37.8042 31.9607 37.5809 32.4769 37.2979 32.9733C37.015 33.4696 36.6775 33.9213 36.3002 34.3234C36.062 34.5766 35.6797 34.6163 35.3819 34.4425L34.6969 34.0504C34.3644 33.8568 33.9474 33.8866 33.6148 34.0802C33.2773 34.2738 33.039 34.6212 33.039 35.0084V35.887C33.039 36.2345 32.8157 36.5472 32.4781 36.6216C31.9569 36.7408 31.4109 36.8053 30.855 36.8053C30.299 36.8053 29.753 36.7408 29.2318 36.6216C28.8943 36.5472 28.6709 36.2345 28.6709 35.887V35.0233C28.6709 34.6312 28.4277 34.2837 28.0902 34.0852C27.7526 33.8916 27.3357 33.8618 26.9982 34.0554L26.328 34.4425C26.0253 34.6163 25.648 34.5766 25.4098 34.3234C25.0325 33.9213 24.6999 33.4696 24.412 32.9733C24.1241 32.4769 23.9008 31.9607 23.7419 31.4345C23.6377 31.1019 23.7965 30.7545 24.0993 30.5807L24.7942 30.1787C25.1169 29.9901 25.2956 29.6277 25.2956 29.2554C25.2956 28.8831 25.1219 28.5208 24.7942 28.3322L24.0993 27.9301C23.7965 27.7564 23.6427 27.4089 23.7419 27.0763C23.9057 26.5502 24.1241 26.034 24.412 25.5376C24.6999 25.0412 25.0325 24.5895 25.4098 24.1874C25.648 23.9343 26.0253 23.8946 26.328 24.0683L27.0031 24.4555C27.3407 24.6491 27.7576 24.6193 28.0951 24.4257C28.4376 24.2321 28.6759 23.8797 28.6759 23.4876V22.6239H28.6709ZM33.2425 29.2505C33.2573 28.9281 33.2065 28.6061 33.0932 28.3039C32.98 28.0017 32.8067 27.7256 32.5838 27.4923C32.3609 27.259 32.0929 27.0733 31.7962 26.9464C31.4995 26.8195 31.1802 26.7541 30.8575 26.7541C30.5348 26.7541 30.2154 26.8195 29.9187 26.9464C29.622 27.0733 29.3541 27.259 29.1312 27.4923C28.9082 27.7256 28.7349 28.0017 28.6217 28.3039C28.5085 28.6061 28.4577 28.9281 28.4724 29.2505C28.4577 29.5728 28.5085 29.8948 28.6217 30.197C28.7349 30.4992 28.9082 30.7753 29.1312 31.0086C29.3541 31.242 29.622 31.4277 29.9187 31.5546C30.2154 31.6814 30.5348 31.7469 30.8575 31.7469C31.1802 31.7469 31.4995 31.6814 31.7962 31.5546C32.0929 31.4277 32.3609 31.242 32.5838 31.0086C32.8067 30.7753 32.98 30.4992 33.0932 30.197C33.2065 29.8948 33.2573 29.5728 33.2425 29.2505Z" fill="url(#paint1_linear_876_779)"/>
</g>
</g>
<defs>
<filter id="filter0_iin_876_779" x="0" y="-2" width="48" height="51" filterUnits="userSpaceOnUse" color-interpolation-filters="sRGB">
<feFlood flood-opacity="0" result="BackgroundImageFix"/>
<feBlend mode="normal" in="SourceGraphic" in2="BackgroundImageFix" result="shape"/>
<feColorMatrix in="SourceAlpha" type="matrix" values="0 0 0 0 0 0 0 0 0 0 0 0 0 0 0 0 0 0 127 0" result="hardAlpha"/>
<feOffset dy="2"/>
<feGaussianBlur stdDeviation="0.5"/>
<feComposite in2="hardAlpha" operator="arithmetic" k2="-1" k3="1"/>
<feColorMatrix type="matrix" values="0 0 0 0 0.392157 0 0 0 0 0.392157 0 0 0 0 0.392157 0 0 0 0.6 0"/>
<feBlend mode="normal" in2="shape" result="effect1_innerShadow_876_779"/>
<feColorMatrix in="SourceAlpha" type="matrix" values="0 0 0 0 0 0 0 0 0 0 0 0 0 0 0 0 0 0 127 0" result="hardAlpha"/>
<feOffset dy="-2"/>
<feGaussianBlur stdDeviation="2"/>
<feComposite in2="hardAlpha" operator="arithmetic" k2="-1" k3="1"/>
<feColorMatrix type="matrix" values="0 0 0 0 0.392157 0 0 0 0 0.392157 0 0 0 0 0.392157 0 0 0 0.4 0"/>
<feBlend mode="normal" in2="effect1_innerShadow_876_779" result="effect2_innerShadow_876_779"/>
<feTurbulence type="fractalNoise" baseFrequency="2 2" stitchTiles="stitch" numOctaves="3" result="noise" seed="5259" />
<feColorMatrix in="noise" type="luminanceToAlpha" result="alphaNoise" />
<feComponentTransfer in="alphaNoise" result="coloredNoise1">
<feFuncA type="discrete" tableValues="0 0 0 0 0 0 0 0 0 0 0 0 0 0 1 1 1 1 1 1 1 1 1 1 1 1 1 1 1 1 1 1 1 1 1 0 0 0 0 0 0 0 0 0 0 0 0 0 0 0 0 0 0 0 0 0 0 0 0 0 0 0 0 0 0 0 0 0 0 0 0 0 0 0 0 0 0 0 0 0 0 0 0 0 0 0 0 0 0 0 0 0 0 0 0 0 0 0 0 0 "/>
</feComponentTransfer>
<feComposite operator="in" in2="effect2_innerShadow_876_779" in="coloredNoise1" result="noise1Clipped" />
<feFlood flood-color="rgba(100, 100, 100, 0.5)" result="color1Flood" />
<feComposite operator="in" in2="noise1Clipped" in="color1Flood" result="color1" />
<feMerge result="effect3_noise_876_779">
<feMergeNode in="effect2_innerShadow_876_779" />
<feMergeNode in="color1" />
</feMerge>
</filter>
<linearGradient id="paint0_linear_876_779" x1="24" y1="0" x2="24" y2="59.4" gradientUnits="userSpaceOnUse">
<stop stop-color="#202020"/>
<stop offset="1" stop-color="#646464"/>
</linearGradient>
<linearGradient id="paint1_linear_876_779" x1="38" y1="11.9644" x2="11" y2="37.0358" gradientUnits="userSpaceOnUse">
<stop stop-color="white"/>
<stop offset="0.801527" stop-color="#828282"/>
</linearGradient>
<clipPath id="clip0_876_779">
<rect width="27" height="27" fill="white" transform="translate(11 11)"/>
</clipPath>
</defs>
</svg>
