<svg width="48" height="48" viewBox="0 0 48 48" fill="none" xmlns="http://www.w3.org/2000/svg">
<g filter="url(#filter0_iin_876_797)">
<rect width="48" height="48" rx="8" fill="url(#paint0_linear_876_797)"/>
<path d="M20.9286 14.375C20.9286 12.9258 22.1283 11.75 23.6071 11.75H25.3929C26.8717 11.75 28.0714 12.9258 28.0714 14.375V33.625C28.0714 35.0742 26.8717 36.25 25.3929 36.25H23.6071C22.1283 36.25 20.9286 35.0742 20.9286 33.625V14.375ZM12 24.875C12 23.4258 13.1998 22.25 14.6786 22.25H16.4643C17.9431 22.25 19.1429 23.4258 19.1429 24.875V33.625C19.1429 35.0742 17.9431 36.25 16.4643 36.25H14.6786C13.1998 36.25 12 35.0742 12 33.625V24.875ZM32.5357 15.25H34.3214C35.8002 15.25 37 16.4258 37 17.875V33.625C37 35.0742 35.8002 36.25 34.3214 36.25H32.5357C31.0569 36.25 29.8571 35.0742 29.8571 33.625V17.875C29.8571 16.4258 31.0569 15.25 32.5357 15.25Z" fill="url(#paint1_linear_876_797)"/>
</g>
<defs>
<filter id="filter0_iin_876_797" x="0" y="-2" width="48" height="51" filterUnits="userSpaceOnUse" color-interpolation-filters="sRGB">
<feFlood flood-opacity="0" result="BackgroundImageFix"/>
<feBlend mode="normal" in="SourceGraphic" in2="BackgroundImageFix" result="shape"/>
<feColorMatrix in="SourceAlpha" type="matrix" values="0 0 0 0 0 0 0 0 0 0 0 0 0 0 0 0 0 0 127 0" result="hardAlpha"/>
<feOffset dy="2"/>
<feGaussianBlur stdDeviation="0.5"/>
<feComposite in2="hardAlpha" operator="arithmetic" k2="-1" k3="1"/>
<feColorMatrix type="matrix" values="0 0 0 0 0.392157 0 0 0 0 0.392157 0 0 0 0 0.392157 0 0 0 0.6 0"/>
<feBlend mode="normal" in2="shape" result="effect1_innerShadow_876_797"/>
<feColorMatrix in="SourceAlpha" type="matrix" values="0 0 0 0 0 0 0 0 0 0 0 0 0 0 0 0 0 0 127 0" result="hardAlpha"/>
<feOffset dy="-2"/>
<feGaussianBlur stdDeviation="2"/>
<feComposite in2="hardAlpha" operator="arithmetic" k2="-1" k3="1"/>
<feColorMatrix type="matrix" values="0 0 0 0 0.392157 0 0 0 0 0.392157 0 0 0 0 0.392157 0 0 0 0.4 0"/>
<feBlend mode="normal" in2="effect1_innerShadow_876_797" result="effect2_innerShadow_876_797"/>
<feTurbulence type="fractalNoise" baseFrequency="2 2" stitchTiles="stitch" numOctaves="3" result="noise" seed="5259" />
<feColorMatrix in="noise" type="luminanceToAlpha" result="alphaNoise" />
<feComponentTransfer in="alphaNoise" result="coloredNoise1">
<feFuncA type="discrete" tableValues="0 0 0 0 0 0 0 0 0 0 0 0 0 0 1 1 1 1 1 1 1 1 1 1 1 1 1 1 1 1 1 1 1 1 1 0 0 0 0 0 0 0 0 0 0 0 0 0 0 0 0 0 0 0 0 0 0 0 0 0 0 0 0 0 0 0 0 0 0 0 0 0 0 0 0 0 0 0 0 0 0 0 0 0 0 0 0 0 0 0 0 0 0 0 0 0 0 0 0 0 "/>
</feComponentTransfer>
<feComposite operator="in" in2="effect2_innerShadow_876_797" in="coloredNoise1" result="noise1Clipped" />
<feFlood flood-color="rgba(100, 100, 100, 0.5)" result="color1Flood" />
<feComposite operator="in" in2="noise1Clipped" in="color1Flood" result="color1" />
<feMerge result="effect3_noise_876_797">
<feMergeNode in="effect2_innerShadow_876_797" />
<feMergeNode in="color1" />
</feMerge>
</filter>
<linearGradient id="paint0_linear_876_797" x1="24" y1="0" x2="24" y2="59.4" gradientUnits="userSpaceOnUse">
<stop stop-color="#202020"/>
<stop offset="1" stop-color="#646464"/>
</linearGradient>
<linearGradient id="paint1_linear_876_797" x1="25" y1="12" x2="24.5" y2="36.25" gradientUnits="userSpaceOnUse">
<stop stop-color="white"/>
<stop offset="1" stop-color="#828282"/>
</linearGradient>
</defs>
</svg>
