<svg width="24" height="24" viewBox="0 0 24 24" fill="none" xmlns="http://www.w3.org/2000/svg">
<path d="M13.4144 17.6565L12.0002 19.0707C11.0625 20.0084 9.7907 20.5352 8.46462 20.5352C7.13854 20.5352 5.86677 20.0084 4.92909 19.0707C3.99141 18.133 3.46462 16.8612 3.46462 15.5352C3.46462 14.2091 3.99141 12.9373 4.92909 11.9996L6.3433 10.5854M10.5859 6.34277L12.0002 4.92855C12.9378 3.99087 14.2096 3.46409 15.5357 3.46409C16.8618 3.46409 18.1335 3.99087 19.0712 4.92855C20.0089 5.86624 20.5357 7.13801 20.5357 8.46409C20.5357 9.79017 20.0089 11.0619 19.0712 11.9996L17.657 13.4138M9.17173 14.828L14.8286 9.1712" stroke="#B4DD0A" stroke-width="1.8" stroke-linecap="round" stroke-linejoin="round"/>
</svg>
