<svg width="150" height="25" viewBox="0 0 150 25" fill="none" xmlns="http://www.w3.org/2000/svg">
<path d="M20.5552 24V8.96663H24.6637V24H20.5552ZM22.6095 6.53888C21.9455 6.53888 21.3956 6.321 20.9599 5.88525C20.5241 5.42875 20.3062 4.8685 20.3062 4.2045C20.3062 3.56125 20.5241 3.01138 20.9599 2.55488C21.3956 2.09838 21.9455 1.87013 22.6095 1.87013C23.2942 1.87013 23.8441 2.09838 24.2591 2.55488C24.6949 3.01138 24.9127 3.56125 24.9127 4.2045C24.9127 4.8685 24.6949 5.42875 24.2591 5.88525C23.8441 6.321 23.2942 6.53888 22.6095 6.53888ZM38.2357 24.3112C36.638 24.3112 35.1543 24.0311 33.7848 23.4709C32.4153 22.8899 31.2118 22.091 30.1743 21.0743C29.1576 20.0368 28.3691 18.8333 27.8088 17.4638C27.2693 16.0943 26.9996 14.621 26.9996 13.044C26.9996 11.467 27.2693 9.99375 27.8088 8.62425C28.3691 7.25475 29.1576 6.06163 30.1743 5.04488C31.2118 4.02813 32.405 3.22925 33.7537 2.64825C35.1232 2.06725 36.6172 1.77675 38.2357 1.77675C39.9787 1.77675 41.5142 2.06725 42.8422 2.64825C44.1702 3.2085 45.3426 3.98663 46.3593 4.98263L43.4958 7.84613C42.8941 7.18213 42.1575 6.66338 41.286 6.28988C40.4145 5.91638 39.3977 5.72963 38.2357 5.72963C37.219 5.72963 36.2852 5.906 35.4345 6.25875C34.6045 6.59075 33.8782 7.08875 33.2557 7.75275C32.6332 8.396 32.156 9.17413 31.824 10.0871C31.492 10.9794 31.326 11.965 31.326 13.044C31.326 14.1438 31.492 15.1398 31.824 16.032C32.156 16.9243 32.6332 17.7024 33.2557 18.3664C33.8782 19.0096 34.6045 19.5076 35.4345 19.8604C36.2852 20.2131 37.219 20.3895 38.2357 20.3895C39.46 20.3895 40.5078 20.2028 41.3793 19.8293C42.2716 19.4558 43.0186 18.9266 43.6203 18.2419L46.4838 21.1054C45.4671 22.1221 44.2843 22.9106 42.9356 23.4709C41.5868 24.0311 40.0202 24.3112 38.2357 24.3112ZM55.0386 24.3112C53.5238 24.3112 52.1543 23.9689 50.9301 23.2841C49.7266 22.5786 48.7617 21.6345 48.0355 20.4518C47.33 19.2483 46.9772 17.9099 46.9772 16.4366C46.9772 14.9634 47.33 13.6458 48.0355 12.4838C48.741 11.301 49.7058 10.3673 50.9301 9.6825C52.1543 8.977 53.5135 8.62425 55.0075 8.62425C56.543 8.62425 57.9125 8.977 59.116 9.6825C60.3402 10.3673 61.3051 11.301 62.0106 12.4838C62.7161 13.6458 63.0688 14.9634 63.0688 16.4366C63.0688 17.9099 62.7161 19.2483 62.0106 20.4518C61.3051 21.6345 60.3402 22.5786 59.116 23.2841C57.9125 23.9689 56.5533 24.3112 55.0386 24.3112ZM55.0075 20.514C55.7752 20.514 56.4496 20.348 57.0306 20.016C57.6323 19.6633 58.0888 19.186 58.4001 18.5843C58.7321 17.9618 58.8981 17.2563 58.8981 16.4678C58.8981 15.6793 58.7321 14.9841 58.4001 14.3824C58.0681 13.7806 57.6116 13.3138 57.0306 12.9818C56.4496 12.629 55.7752 12.4526 55.0075 12.4526C54.2605 12.4526 53.5965 12.629 53.0155 12.9818C52.4345 13.3138 51.978 13.7806 51.646 14.3824C51.314 14.9841 51.148 15.6793 51.148 16.4678C51.148 17.2563 51.314 17.9618 51.646 18.5843C51.978 19.186 52.4345 19.6633 53.0155 20.016C53.5965 20.348 54.2605 20.514 55.0075 20.514ZM71.4208 24.3112C70.0305 24.3112 68.7855 23.9689 67.6858 23.2841C66.586 22.5994 65.7145 21.6656 65.0713 20.4829C64.4488 19.3001 64.1375 17.9721 64.1375 16.4989C64.1375 15.0049 64.4488 13.6665 65.0713 12.4838C65.7145 11.301 66.5757 10.3673 67.6547 9.6825C68.7544 8.99775 70.0098 8.65538 71.4208 8.65538C72.4998 8.65538 73.4647 8.87325 74.3154 9.309C75.1869 9.74475 75.882 10.3569 76.4008 11.1454C76.9403 11.9131 77.2308 12.7846 77.2723 13.7599V19.1134C77.2308 20.0886 76.9507 20.9705 76.4319 21.759C75.9132 22.5475 75.218 23.17 74.3465 23.6265C73.475 24.083 72.4998 24.3112 71.4208 24.3112ZM72.1055 20.5451C72.8733 20.5451 73.5373 20.3791 74.0975 20.0471C74.6785 19.6944 75.1247 19.2171 75.4359 18.6154C75.7679 17.9929 75.9339 17.277 75.9339 16.4678C75.9339 15.6793 75.7679 14.9841 75.4359 14.3824C75.1247 13.7599 74.6785 13.2826 74.0975 12.9506C73.5373 12.5979 72.8837 12.4215 72.1367 12.4215C71.3689 12.4215 70.6945 12.5979 70.1135 12.9506C69.5533 13.3034 69.1072 13.7806 68.7752 14.3824C68.4639 14.9841 68.3083 15.6793 68.3083 16.4678C68.3083 17.277 68.4639 17.9929 68.7752 18.6154C69.1072 19.2171 69.5637 19.6944 70.1447 20.0471C70.7257 20.3791 71.3793 20.5451 72.1055 20.5451ZM79.7623 24H75.716V19.9538L76.3697 16.281L75.6849 12.6705V1.49663H79.7623V24ZM89.9368 24.3112C88.3598 24.3112 86.9591 23.9792 85.7349 23.3153C84.5106 22.6305 83.5354 21.6968 82.8091 20.514C82.1036 19.3313 81.7509 17.9825 81.7509 16.4678C81.7509 14.9738 82.0933 13.6458 82.778 12.4838C83.4835 11.301 84.438 10.3673 85.6415 9.6825C86.845 8.977 88.1834 8.62425 89.6566 8.62425C91.1091 8.62425 92.3853 8.95625 93.485 9.62025C94.6055 10.2635 95.477 11.1558 96.0995 12.297C96.7428 13.4175 97.0644 14.6936 97.0644 16.1254C97.0644 16.3951 97.0436 16.6753 97.0021 16.9658C96.9814 17.2355 96.9295 17.5468 96.8465 17.8995L84.2098 17.9306V14.8804L94.9479 14.8493L93.2983 16.1254C93.2568 15.2331 93.0908 14.4861 92.8003 13.8844C92.5305 13.2826 92.1259 12.8261 91.5864 12.5149C91.0676 12.1829 90.4244 12.0169 89.6566 12.0169C88.8474 12.0169 88.1419 12.2036 87.5401 12.5771C86.9384 12.9299 86.4715 13.4383 86.1395 14.1023C85.8283 14.7455 85.6726 15.5133 85.6726 16.4055C85.6726 17.3185 85.8386 18.1174 86.1706 18.8021C86.5234 19.4661 87.0214 19.9849 87.6646 20.3584C88.3079 20.7111 89.0549 20.8875 89.9056 20.8875C90.6734 20.8875 91.3685 20.763 91.991 20.514C92.6135 20.2443 93.153 19.85 93.6095 19.3313L96.0061 21.7279C95.2799 22.5786 94.3876 23.2219 93.3294 23.6576C92.2919 24.0934 91.161 24.3112 89.9368 24.3112ZM97.7807 24L106.589 2.11913H110.044L118.821 24H114.308L107.523 6.04088H109.079L102.2 24H97.7807ZM102.449 19.9226V16.3744H114.215V19.9226H102.449ZM126.119 24.3112C124.729 24.3112 123.484 23.9689 122.384 23.2841C121.285 22.5994 120.413 21.6656 119.77 20.4829C119.147 19.3001 118.836 17.9721 118.836 16.4989C118.836 15.0049 119.147 13.6665 119.77 12.4838C120.413 11.301 121.274 10.3673 122.353 9.6825C123.453 8.99775 124.708 8.65538 126.119 8.65538C127.198 8.65538 128.163 8.87325 129.014 9.309C129.885 9.74475 130.581 10.3569 131.099 11.1454C131.639 11.9131 131.929 12.7846 131.971 13.7599V19.1134C131.929 20.0886 131.649 20.9705 131.13 21.759C130.612 22.5475 129.917 23.17 129.045 23.6265C128.174 24.083 127.198 24.3112 126.119 24.3112ZM126.804 20.5451C127.572 20.5451 128.236 20.3791 128.796 20.0471C129.377 19.6944 129.823 19.2171 130.134 18.6154C130.466 17.9929 130.632 17.277 130.632 16.4678C130.632 15.6793 130.466 14.9841 130.134 14.3824C129.823 13.7599 129.377 13.2826 128.796 12.9506C128.236 12.5979 127.582 12.4215 126.835 12.4215C126.067 12.4215 125.393 12.5979 124.812 12.9506C124.252 13.3034 123.806 13.7806 123.474 14.3824C123.162 14.9841 123.007 15.6793 123.007 16.4678C123.007 17.277 123.162 17.9929 123.474 18.6154C123.806 19.2171 124.262 19.6944 124.843 20.0471C125.424 20.3791 126.078 20.5451 126.804 20.5451ZM134.461 24H130.415V19.9538L131.068 16.281L130.383 12.6705V1.49663H134.461V24ZM142.612 24.3424C141.761 24.3424 140.921 24.2282 140.091 24C139.282 23.7718 138.535 23.4605 137.85 23.0663C137.165 22.6513 136.574 22.1533 136.076 21.5723L138.504 19.1134C139.022 19.6944 139.624 20.1301 140.309 20.4206C140.994 20.7111 141.751 20.8564 142.581 20.8564C143.245 20.8564 143.743 20.763 144.075 20.5763C144.428 20.3895 144.604 20.1094 144.604 19.7359C144.604 19.3209 144.417 18.9993 144.044 18.771C143.691 18.5428 143.224 18.356 142.643 18.2108C142.062 18.0448 141.45 17.8684 140.807 17.6816C140.184 17.4741 139.583 17.2148 139.002 16.9035C138.421 16.5715 137.943 16.1254 137.57 15.5651C137.217 14.9841 137.041 14.2371 137.041 13.3241C137.041 12.3696 137.269 11.5396 137.726 10.8341C138.203 10.1286 138.877 9.57875 139.749 9.1845C140.62 8.79025 141.647 8.59313 142.83 8.59313C144.075 8.59313 145.196 8.811 146.192 9.24675C147.208 9.6825 148.049 10.3361 148.713 11.2076L146.254 13.6665C145.797 13.1063 145.279 12.7016 144.698 12.4526C144.137 12.2036 143.525 12.0791 142.861 12.0791C142.259 12.0791 141.793 12.1725 141.461 12.3593C141.149 12.546 140.994 12.8054 140.994 13.1374C140.994 13.5109 141.17 13.8014 141.523 14.0089C141.896 14.2164 142.374 14.4031 142.955 14.5691C143.536 14.7144 144.137 14.8908 144.76 15.0983C145.403 15.285 146.005 15.5548 146.565 15.9075C147.146 16.2603 147.613 16.7271 147.966 17.3081C148.339 17.8891 148.526 18.6361 148.526 19.5491C148.526 21.0224 147.997 22.1948 146.939 23.0663C145.88 23.917 144.438 24.3424 142.612 24.3424Z" fill="white"/>
<rect x="7.875" y="0.75" width="7.875" height="7.875" fill="white"/>
<rect y="8.625" width="7.875" height="7.5" fill="white"/>
<path d="M7.875 24L0 16.125L7.875 16.125L7.875 24Z" fill="white"/>
<rect x="7.875" y="16.125" width="7.875" height="7.875" fill="white"/>
</svg>
