<svg width="24" height="24" viewBox="0 0 24 24" fill="none" xmlns="http://www.w3.org/2000/svg">
<path d="M10.9134 13.0858C10.7223 12.895 10.4945 12.7449 10.2438 12.6445L2.31381 9.46454C2.21912 9.42655 2.13833 9.36051 2.08226 9.27527C2.0262 9.19004 1.99755 9.08969 2.00016 8.9877C2.00278 8.88572 2.03652 8.78697 2.09688 8.70472C2.15723 8.62246 2.2413 8.56064 2.33781 8.52754L21.3378 2.02754C21.4264 1.99554 21.5223 1.98943 21.6143 2.00994C21.7062 2.03044 21.7904 2.07671 21.857 2.14332C21.9236 2.20994 21.9699 2.29415 21.9904 2.3861C22.0109 2.47805 22.0048 2.57394 21.9728 2.66254L15.4728 21.6625C15.4397 21.759 15.3779 21.8431 15.2956 21.9035C15.2134 21.9638 15.1146 21.9976 15.0126 22.0002C14.9107 22.0028 14.8103 21.9741 14.7251 21.9181C14.6398 21.862 14.5738 21.7812 14.5358 21.6865L11.3558 13.7545C11.255 13.504 11.1045 13.2765 10.9134 13.0858ZM10.9134 13.0858L21.8538 2.14754" stroke="#B4DD0A" stroke-width="1.8" stroke-linecap="round" stroke-linejoin="round"/>
</svg>
